<?xml version="1.0" encoding="utf-8"?>
<!-- Generator: Adobe Illustrator 17.0.0, SVG Export Plug-In . SVG Version: 6.00 Build 0)  -->
<!DOCTYPE svg PUBLIC "-//W3C//DTD SVG 1.1//EN" "http://www.w3.org/Graphics/SVG/1.1/DTD/svg11.dtd">
<svg version="1.1" id="Layer_1" xmlns="http://www.w3.org/2000/svg" xmlns:xlink="http://www.w3.org/1999/xlink" x="0px" y="0px"
	 width="669px" height="130.5px" viewBox="-98.5 0 669 130.5" enable-background="new -98.5 0 669 130.5" xml:space="preserve">
<g>
	<path fill="#A3A191" stroke="#A3A191" stroke-miterlimit="10" d="M4.227,92.8v-1.257c3.1-0.251,5.699-0.817,7.796-1.697
		c2.095-0.881,3.477-1.865,4.149-2.955c0.167-0.251,0.314-0.754,0.44-1.508c0.126-0.754,0.23-1.634,0.314-2.642
		c0.083-1.006,0.146-2.052,0.189-3.143c0.041-1.089,0.063-2.137,0.063-3.145c0.083-2.765,0.126-5.614,0.126-8.55
		c0-3.019,0-5.826,0-8.425c0-2.681,0-5.028,0-7.041c0-2.094,0-3.561,0-4.4h-49.666V75.07c0,2.433,0.042,4.779,0.126,7.041
		c0.083,2.265,0.46,3.858,1.132,4.779c1.006,1.426,2.43,2.514,4.274,3.269c1.843,0.754,3.646,1.216,5.407,1.383v1.257h-37.093
		v-1.257c2.094-0.335,4.106-0.901,6.036-1.697c1.927-0.796,3.394-1.78,4.4-2.955c0.334-0.418,0.607-1.11,0.817-2.074
		c0.209-0.963,0.378-2.075,0.503-3.332c0.125-1.257,0.23-2.618,0.314-4.085c0.081-1.466,0.126-2.871,0.126-4.213
		c0-1.174,0.02-2.766,0.063-4.779c0.041-2.011,0.081-4.213,0.126-6.601c0.041-2.389,0.063-4.842,0.063-7.356c0-2.598,0-5.03,0-7.293
		V22.639c0-1.508,0-3.017,0-4.526s-0.063-2.912-0.189-4.213c-0.126-1.299-0.314-2.472-0.566-3.52
		c-0.252-1.047-0.629-1.864-1.132-2.452c-1.176-1.424-2.621-2.452-4.337-3.08c-1.719-0.629-3.667-1.069-5.847-1.32V2.27h37.469
		v1.257c-1.176,0.169-2.433,0.42-3.772,0.755c-1.341,0.335-2.557,0.86-3.646,1.571c-1.09,0.713-2.012,1.697-2.766,2.955
		c-0.755,1.257-1.176,2.85-1.258,4.779c-0.084,2.934-0.147,6.099-0.189,9.493c-0.043,3.394-0.063,6.644-0.063,9.744
		c0,3.017,0,5.701,0,8.047c0,2.263,0,3.816,0,4.653H17.3c0-2.682,0-5.112,0-7.293c0-2.263,0-4.441,0-6.539c0-2.094,0-4.232,0-6.413
		c0-2.179-0.043-4.653-0.126-7.418c-0.084-1.591-0.189-3.247-0.314-4.966c-0.126-1.717-0.524-3.121-1.194-4.213
		c-1.509-2.263-3.229-3.666-5.156-4.213c-1.93-0.545-3.857-0.859-5.783-0.943V2.27h37.846v1.257
		c-2.011,0.251-3.983,0.818-5.91,1.697c-1.93,0.88-3.353,2.159-4.274,3.834c-0.336,0.587-0.587,1.404-0.754,2.452
		c-0.169,1.05-0.296,2.221-0.377,3.52c-0.084,1.3-0.126,2.621-0.126,3.96c0,1.341,0,2.64,0,3.899v21.5c0,3.103,0,5.91,0,8.424
		c0,2.433,0,4.863,0,7.294c0,2.347,0.02,4.777,0.063,7.293c0.041,2.514,0.063,5.282,0.063,8.298c0,2.433,0.063,4.675,0.189,6.727
		c0.126,2.054,0.44,3.459,0.943,4.213c1.089,1.677,2.556,2.85,4.4,3.522c1.843,0.671,3.855,1.131,6.036,1.383v1.257h-38.6V92.8z"/>
	<path fill="#A3A191" stroke="#A3A191" stroke-miterlimit="10" d="M104.815,92.925h-0.88V80.226l-0.126-0.126
		c-0.923,1.426-2.054,2.934-3.394,4.526c-1.341,1.593-2.85,3.038-4.526,4.337c-1.677,1.3-3.543,2.326-5.596,3.082
		c-2.054,0.754-4.256,1.131-6.601,1.131c-5.364,0-9.326-1.592-11.882-4.779c-2.557-3.184-3.834-7.837-3.834-13.956V43.764
		c0-0.334,0-0.795,0-1.383c0-0.586-0.043-1.195-0.126-1.823c-0.084-0.629-0.147-1.214-0.189-1.76
		c-0.043-0.545-0.147-0.943-0.314-1.195c-0.336-0.754-0.818-1.298-1.446-1.634c-0.629-0.334-1.32-0.586-2.074-0.754
		c-0.755-0.167-1.553-0.272-2.389-0.315c-0.839-0.041-1.635-0.104-2.389-0.189v-1.383H78.41v36.589
		c0,5.533,0.841,9.619,2.526,12.259c1.687,2.642,4.844,3.962,9.477,3.962c1.768,0,3.306-0.23,4.613-0.691
		c1.304-0.461,2.484-1.048,3.536-1.76c1.052-0.712,2.022-1.529,2.906-2.452c0.884-0.921,1.708-1.886,2.466-2.891V42.507
		c0-0.837-0.084-1.906-0.251-3.206c-0.168-1.299-0.503-2.283-1.006-2.955c-1.006-0.419-2.37-0.754-4.086-1.006
		c-1.719-0.252-3.502-0.46-5.343-0.629v-1.383h21.124v49.665c0,0.673,0.063,1.176,0.189,1.509c0.126,0.336,0.481,0.713,1.068,1.131
		c0.754,0.42,1.864,0.964,3.332,1.634c1.466,0.673,2.703,1.216,3.709,1.634v0.754L104.815,92.925z"/>
	<path fill="#A3A191" stroke="#A3A191" stroke-miterlimit="10" d="M179.249,43.324c-1.09,1.216-2.347,1.823-3.772,1.823
		c-1.341,0-2.41-0.23-3.206-0.692c-0.797-0.46-1.49-0.984-2.075-1.571c-0.587-0.586-1.216-1.11-1.886-1.572
		c-0.673-0.46-1.593-0.691-2.766-0.691c-1.006,0-1.993,0.357-2.955,1.069c-0.964,0.713-1.867,1.614-2.703,2.703
		c-0.839,1.09-1.593,2.326-2.263,3.709c-0.671,1.383-1.257,2.703-1.76,3.96v36.212c0.251,0.754,0.795,1.341,1.634,1.761
		c0.837,0.419,1.78,0.713,2.829,0.88c1.047,0.168,2.137,0.273,3.269,0.314c1.132,0.042,2.116,0.147,2.955,0.314V92.8h-28.165v-1.257
		c1.927-0.167,3.583-0.544,4.966-1.131c1.383-0.586,2.074-1.551,2.074-2.892V45.021c0-0.67-0.063-1.173-0.189-1.509
		c-0.126-0.334-0.483-0.712-1.068-1.131c-0.754-0.419-1.634-0.943-2.64-1.572c-1.006-0.629-2.011-1.151-3.017-1.571v-0.754
		l16.472-6.413h0.754l-0.251,17.478h0.251c0.418-1.006,1.089-2.471,2.011-4.4c0.922-1.927,2.095-3.876,3.522-5.847
		c1.424-1.969,3.143-3.666,5.154-5.093c2.012-1.424,4.316-2.137,6.916-2.137c2.095,0,3.876,0.629,5.343,1.886
		c1.466,1.258,2.2,2.85,2.2,4.779C180.884,40.578,180.338,42.109,179.249,43.324z"/>
	<path fill="#A3A191" stroke="#A3A191" stroke-miterlimit="10" d="M282.666,34.962c-1.05,0.084-2.074,0.357-3.082,0.818
		c-1.006,0.462-1.993,1.174-2.954,2.137c-0.964,0.964-1.823,2.326-2.577,4.086c-1.007,2.347-2.201,5.091-3.585,8.236
		c-1.383,3.143-2.81,6.434-4.276,9.871c-1.467,3.438-2.934,6.853-4.402,10.247c-1.467,3.395-2.787,6.56-3.96,9.494
		c-0.754,1.593-1.384,2.954-1.888,4.086c-0.503,1.131-0.964,2.137-1.383,3.017c-0.42,0.88-0.817,1.74-1.194,2.577
		c-0.377,0.839-0.817,1.761-1.32,2.766c-0.336,0.503-0.713,0.754-1.131,0.754c-0.42,0-0.692-0.084-0.818-0.251
		s-0.231-0.377-0.314-0.629c-1.09-3.269-2.137-6.39-3.143-9.368c-1.006-2.974-2.054-6.054-3.145-9.241
		c-1.09-3.185-2.262-6.664-3.52-10.436c-1.257-3.772-2.724-8.087-4.4-12.95L223.629,81.36c-1.176,2.265-2.054,4.193-2.64,5.783
		c-0.587,1.593-1.3,3.311-2.137,5.156c-0.335,0.503-0.754,0.754-1.257,0.754c-0.42,0-0.797-0.293-1.131-0.88
		c-3.269-7.963-6.456-15.718-9.556-23.261c-3.103-7.544-6.413-15.548-9.933-24.015c-0.503-1.173-1.068-2.452-1.697-3.836
		c-0.629-1.383-1.279-2.619-1.949-3.709c-0.503-0.418-1.237-0.943-2.2-1.571c-0.964-0.629-2.829-0.985-5.596-1.069v-1.383h28.291
		v1.383c-0.587,0.084-1.279,0.169-2.075,0.251c-0.797,0.084-1.593,0.232-2.389,0.44c-0.797,0.21-1.553,0.44-2.263,0.691
		c-0.713,0.251-1.279,0.587-1.697,1.006c0.167,0.673,0.817,2.494,1.949,5.47c1.131,2.976,2.534,6.518,4.213,10.624
		c1.676,4.109,3.477,8.467,5.407,13.076c1.927,4.612,3.687,8.845,5.28,12.701c0.67-1.676,1.466-3.688,2.389-6.036
		c0.922-2.346,1.927-4.945,3.017-7.797c1.089-2.848,2.2-5.826,3.332-8.927c1.132-3.1,2.242-6.16,3.332-9.179
		c-0.587-1.676-1.216-3.288-1.886-4.84c-0.673-1.55-1.426-3.08-2.263-4.589c-0.251-0.251-0.483-0.523-0.691-0.817
		c-0.21-0.293-0.546-0.586-1.006-0.88c-0.461-0.293-1.111-0.545-1.948-0.755c-0.839-0.208-2.012-0.356-3.52-0.44v-1.383h28.668
		v1.383c-0.673,0.084-1.509,0.189-2.515,0.314c-1.006,0.125-1.993,0.315-2.954,0.566c-0.964,0.251-1.803,0.608-2.515,1.068
		c-0.713,0.462-1.068,1.153-1.068,2.075c0,0.42,0.23,1.404,0.691,2.955c0.461,1.551,1.069,3.457,1.825,5.72
		c0.754,2.263,1.613,4.777,2.577,7.545c0.963,2.765,1.948,5.533,2.955,8.298c1.006,2.765,1.99,5.47,2.954,8.11
		c0.963,2.642,1.823,4.966,2.577,6.979c0.504-1.089,1.215-2.705,2.138-4.842c0.921-2.138,1.905-4.526,2.954-7.168
		c1.048-2.64,2.138-5.363,3.269-8.173c1.131-2.807,2.137-5.447,3.019-7.921c0.88-2.471,1.613-4.672,2.2-6.601
		c0.585-1.927,0.88-3.269,0.88-4.023c0-1.173-0.273-2.075-0.817-2.703c-0.546-0.629-1.216-1.089-2.011-1.383
		c-0.797-0.293-1.658-0.482-2.578-0.566c-0.923-0.081-1.76-0.167-2.514-0.251v-1.383h23.009v1.383
		C284.74,34.795,283.712,34.879,282.666,34.962z"/>
	<path fill="#A3A191" stroke="#A3A191" stroke-miterlimit="10" d="M351.883,74.129c-1.595,3.814-3.732,7.147-6.413,9.996
		c-2.685,2.85-5.806,5.072-9.368,6.664c-3.564,1.593-7.314,2.388-11.253,2.388c-3.268,0-6.664-0.585-10.184-1.76
		c-3.522-1.174-6.77-3.037-9.745-5.596c-2.976-2.556-5.406-5.826-7.293-9.808c-1.886-3.98-2.829-8.654-2.829-14.019
		c0-3.855,0.734-7.586,2.201-11.191c1.465-3.603,3.52-6.79,6.16-9.556c2.64-2.765,5.826-4.986,9.555-6.664
		c3.729-1.676,7.859-2.515,12.385-2.515c3.352,0,6.748,0.629,10.185,1.886c3.436,1.258,6.557,3.124,9.367,5.596
		c2.808,2.473,5.114,5.576,6.916,9.304c1.802,3.73,2.705,8.11,2.705,13.139C354.271,66.268,353.473,70.314,351.883,74.129z
		 M341.635,52.689c-0.629-3.268-1.656-6.287-3.082-9.053c-1.426-2.766-3.311-5.049-5.657-6.853c-2.349-1.802-5.24-2.703-8.676-2.703
		c-2.765,0-5.24,0.839-7.418,2.515c-2.18,1.677-4.046,3.879-5.596,6.601c-1.553,2.726-2.724,5.783-3.522,9.178
		c-0.796,3.395-1.194,6.853-1.194,10.373c0,3.857,0.335,7.503,1.006,10.939c0.671,3.438,1.761,6.476,3.269,9.115
		c1.508,2.642,3.436,4.737,5.783,6.287c2.346,1.553,5.156,2.326,8.424,2.326c3.269,0,6.013-0.985,8.237-2.955
		c2.219-1.968,4.022-4.442,5.405-7.418c1.384-2.975,2.389-6.18,3.018-9.619c0.629-3.435,0.943-6.62,0.943-9.555
		C342.578,59.02,342.264,55.96,341.635,52.689z"/>
	<path fill="#A3A191" stroke="#A3A191" stroke-miterlimit="10" d="M411.102,43.324c-1.09,1.216-2.347,1.823-3.771,1.823
		c-1.342,0-2.412-0.23-3.206-0.692c-0.797-0.46-1.49-0.984-2.074-1.571c-0.587-0.586-1.216-1.11-1.888-1.572
		c-0.671-0.46-1.593-0.691-2.765-0.691c-1.006,0-1.993,0.357-2.955,1.069c-0.964,0.713-1.867,1.614-2.703,2.703
		c-0.839,1.09-1.593,2.326-2.263,3.709c-0.673,1.383-1.258,2.703-1.761,3.96v36.212c0.251,0.754,0.796,1.341,1.635,1.761
		c0.837,0.419,1.779,0.713,2.828,0.88c1.047,0.168,2.137,0.273,3.269,0.314c1.131,0.042,2.115,0.147,2.954,0.314V92.8h-28.164
		v-1.257c1.927-0.167,3.583-0.544,4.965-1.131c1.384-0.586,2.075-1.551,2.075-2.892V45.021c0-0.67-0.063-1.173-0.189-1.509
		c-0.126-0.334-0.483-0.712-1.068-1.131c-0.755-0.419-1.635-0.943-2.642-1.572s-2.011-1.151-3.017-1.571v-0.754l16.47-6.413h0.754
		l-0.251,17.478h0.251c0.419-1.006,1.089-2.471,2.012-4.4c0.921-1.927,2.094-3.876,3.52-5.847c1.425-1.969,3.145-3.666,5.156-5.093
		c2.011-1.424,4.316-2.137,6.916-2.137c2.095,0,3.876,0.629,5.343,1.886c1.466,1.258,2.2,2.85,2.2,4.779
		C412.736,40.578,412.191,42.109,411.102,43.324z"/>
	<path fill="#A3A191" stroke="#A3A191" stroke-miterlimit="10" d="M461.521,40.997h-19.112v33.068c0,4.276,0.922,7.377,2.766,9.304
		c1.842,1.93,4.232,2.892,7.167,2.892c2.431,0,4.442-0.397,6.036-1.194c1.592-0.796,2.975-2.032,4.149-3.709l0.754,0.377
		c-0.503,1.257-1.194,2.578-2.075,3.962c-0.88,1.383-2.054,2.64-3.52,3.771c-1.467,1.132-3.187,2.012-5.156,2.642
		c-1.97,0.629-4.297,0.943-6.978,0.943c-1.76,0-3.451-0.271-5.066-0.817c-1.617-0.544-3.046-1.341-4.289-2.388
		s-2.258-2.22-3.043-3.522c-0.788-1.298-1.18-2.619-1.18-3.962c0-7.877,0.041-15.359,0.126-22.444
		c0.081-7.083,0.126-13.39,0.126-18.923h-9.179v-1.383l18.118-17.226h0.994v10.939h23.261L461.521,40.997z"/>
	<path fill="#A3A191" stroke="#A3A191" stroke-miterlimit="10" d="M510.807,92.8v-1.383c2.265-0.167,4.149-0.44,5.659-0.817
		c1.509-0.377,2.263-1.236,2.263-2.578V56.588c0-2.431-0.168-4.693-0.503-6.79c-0.335-2.094-0.943-3.897-1.823-5.407
		c-0.88-1.508-2.074-2.682-3.583-3.52c-1.509-0.837-3.439-1.257-5.783-1.257c-3.019,0-5.576,0.546-7.671,1.634
		c-2.096,1.09-3.771,2.559-5.028,4.402c-0.169,0.251-0.399,0.776-0.692,1.571c-0.294,0.797-0.44,1.532-0.44,2.2v38.601
		c0,0.754,0.209,1.341,0.629,1.761c0.42,0.42,0.963,0.734,1.635,0.943c0.67,0.21,1.424,0.356,2.263,0.44
		c0.838,0.084,1.676,0.21,2.515,0.377V92.8h-25.022v-1.257c1.927-0.167,3.665-0.481,5.217-0.943
		c1.551-0.461,2.326-1.488,2.326-3.082V16.102c0-0.67-0.063-1.173-0.189-1.508c-0.126-0.334-0.483-0.712-1.068-1.131
		c-0.673-0.586-1.572-1.151-2.705-1.697c-1.131-0.545-2.244-1.151-3.331-1.823V9.189l16.847-7.672h1.006l-0.377,43.63l0.251,0.126
		c0.583-1.173,1.482-2.515,2.694-4.023c1.211-1.508,2.735-2.933,4.574-4.274c1.836-1.34,3.945-2.493,6.325-3.457
		c2.381-0.963,4.993-1.446,7.834-1.446c2.754,0,5.072,0.483,6.953,1.446c1.878,0.964,3.382,2.307,4.511,4.023
		c1.127,1.719,1.922,3.753,2.381,6.099c0.46,2.349,0.688,4.903,0.688,7.67v37.092c0,0.587,0.251,1.09,0.754,1.509
		c0.503,0.419,1.131,0.734,1.888,0.943c0.754,0.21,1.55,0.377,2.388,0.503c0.837,0.126,1.634,0.231,2.388,0.314v1.131h-25.774V92.8z
		"/>
	<path fill="#A3A191" stroke="#A3A191" stroke-miterlimit="10" d="M41.066,130.232v-15.709l-6.116,11.697h-2.508l-6.116-11.697
		v15.709h-4.613v-23.73h4.947l7.018,13.503l7.087-13.503h4.914v23.73H41.066z"/>
	<path fill="#A3A191" stroke="#A3A191" stroke-miterlimit="10" d="M87.391,126.322c1.092,0,2.011-0.222,2.757-0.669
		c0.746-0.445,1.348-1.023,1.805-1.738c0.457-0.712,0.78-1.532,0.969-2.456c0.189-0.923,0.284-1.877,0.284-2.857v-12.1h4.579v12.1
		c0,1.626-0.196,3.152-0.585,4.578c-0.39,1.426-1.004,2.674-1.838,3.744c-0.835,1.069-1.911,1.918-3.226,2.542
		c-1.315,0.624-2.886,0.935-4.713,0.935c-1.894,0-3.505-0.328-4.83-0.985c-1.327-0.658-2.401-1.526-3.226-2.607
		c-0.825-1.08-1.421-2.333-1.788-3.759c-0.368-1.425-0.552-2.908-0.552-4.445v-12.1h4.613v12.1c0,1.002,0.095,1.966,0.284,2.89
		c0.189,0.925,0.512,1.744,0.969,2.456c0.456,0.715,1.052,1.287,1.788,1.722C85.419,126.105,86.321,126.322,87.391,126.322z"/>
	<path fill="#A3A191" stroke="#A3A191" stroke-miterlimit="10" d="M143.308,112.719c-0.156-0.156-0.44-0.368-0.852-0.634
		c-0.412-0.268-0.914-0.529-1.504-0.787c-0.591-0.255-1.232-0.473-1.922-0.652c-0.69-0.179-1.392-0.267-2.106-0.267
		c-1.27,0-2.217,0.234-2.841,0.701c-0.624,0.468-0.935,1.124-0.935,1.972c0,0.491,0.117,0.898,0.351,1.22
		c0.234,0.323,0.574,0.608,1.019,0.852s1.009,0.466,1.688,0.669c0.679,0.2,1.465,0.411,2.356,0.634
		c1.159,0.311,2.211,0.646,3.158,1.004s1.75,0.801,2.406,1.337c0.657,0.536,1.164,1.176,1.521,1.922
		c0.356,0.746,0.535,1.667,0.535,2.758c0,1.27-0.239,2.356-0.718,3.258c-0.479,0.904-1.126,1.633-1.939,2.19
		c-0.813,0.557-1.75,0.963-2.807,1.22c-1.059,0.255-2.167,0.384-3.326,0.384c-1.782,0-3.543-0.267-5.282-0.801
		c-1.739-0.535-3.298-1.291-4.679-2.272l2.039-3.976c0.201,0.2,0.562,0.462,1.086,0.785c0.523,0.323,1.141,0.646,1.855,0.969
		c0.713,0.323,1.504,0.596,2.374,0.818c0.87,0.223,1.76,0.335,2.674,0.335c2.54,0,3.811-0.813,3.811-2.441
		c0-0.512-0.146-0.947-0.435-1.303c-0.29-0.356-0.701-0.669-1.236-0.935c-0.535-0.268-1.181-0.514-1.939-0.737
		c-0.758-0.222-1.605-0.466-2.54-0.736c-1.136-0.311-2.123-0.652-2.958-1.019c-0.835-0.366-1.533-0.801-2.089-1.303
		c-0.556-0.502-0.975-1.08-1.253-1.738c-0.278-0.657-0.418-1.442-0.418-2.356c0-1.203,0.222-2.271,0.669-3.208
		c0.445-0.935,1.064-1.715,1.855-2.339s1.71-1.097,2.757-1.42c1.047-0.323,2.173-0.485,3.376-0.485c1.671,0,3.208,0.261,4.612,0.785
		c1.404,0.524,2.628,1.143,3.677,1.855L143.308,112.719z"/>
	<path fill="#A3A191" stroke="#A3A191" stroke-miterlimit="10" d="M196.35,106.502v23.73h-4.579v-10.127h-10.762v10.127h-4.613
		v-23.73h4.613v9.593h10.762v-9.593H196.35z"/>
	<path fill="#A3A191" stroke="#A3A191" stroke-miterlimit="10" d="M228.035,130.232v-23.73h10.495c1.092,0,2.1,0.23,3.025,0.684
		c0.925,0.458,1.721,1.06,2.389,1.805c0.669,0.747,1.191,1.595,1.571,2.542c0.378,0.947,0.569,1.899,0.569,2.857
		c0,1.538-0.385,2.936-1.153,4.194c-0.77,1.26-1.811,2.167-3.125,2.724l5.416,8.924h-5.181l-4.846-7.955h-4.545v7.955H228.035z
		 M232.648,118.233h5.782c0.423,0,0.82-0.1,1.186-0.301c0.368-0.2,0.684-0.472,0.952-0.818c0.268-0.345,0.479-0.751,0.634-1.22
		c0.155-0.469,0.234-0.969,0.234-1.505c0-0.557-0.089-1.068-0.268-1.537c-0.179-0.469-0.418-0.875-0.718-1.22
		c-0.301-0.345-0.646-0.613-1.036-0.803c-0.39-0.189-0.786-0.284-1.186-0.284h-5.581v7.688H232.648z"/>
	<path fill="#A3A191" stroke="#A3A191" stroke-miterlimit="10" d="M287.127,130.399c-1.738,0-3.314-0.339-4.73-1.018
		c-1.416-0.679-2.63-1.583-3.642-2.709c-1.014-1.124-1.8-2.412-2.357-3.859c-0.557-1.448-0.835-2.929-0.835-4.446
		c0-1.581,0.296-3.096,0.885-4.545c0.59-1.449,1.404-2.73,2.439-3.845c1.036-1.114,2.268-1.999,3.694-2.656
		c1.427-0.658,2.975-0.986,4.646-0.986c1.717,0,3.281,0.352,4.696,1.053c1.415,0.701,2.624,1.62,3.627,2.757
		c1.004,1.136,1.782,2.43,2.339,3.878c0.557,1.448,0.837,2.92,0.837,4.411c0,1.583-0.29,3.092-0.87,4.529
		c-0.579,1.437-1.382,2.707-2.406,3.809c-1.025,1.102-2.251,1.983-3.677,2.642C290.346,130.07,288.799,130.399,287.127,130.399z
		 M280.243,118.367c0,1.025,0.155,2.016,0.466,2.975c0.311,0.959,0.763,1.805,1.354,2.54c0.59,0.737,1.314,1.327,2.171,1.772
		c0.858,0.447,1.834,0.669,2.925,0.669c1.115,0,2.1-0.227,2.958-0.684c0.858-0.457,1.582-1.064,2.173-1.822
		c0.59-0.757,1.036-1.61,1.337-2.556c0.301-0.947,0.452-1.91,0.452-2.891c0-1.025-0.162-2.016-0.485-2.975
		c-0.323-0.959-0.78-1.805-1.37-2.54c-0.591-0.736-1.315-1.32-2.173-1.755c-0.858-0.435-1.822-0.652-2.891-0.652
		c-1.115,0-2.106,0.229-2.975,0.684c-0.868,0.457-1.593,1.059-2.171,1.805c-0.579,0.746-1.019,1.593-1.321,2.54
		C280.392,116.423,280.243,117.387,280.243,118.367z"/>
	<path fill="#A3A191" stroke="#A3A191" stroke-miterlimit="10" d="M339.134,130.399c-1.738,0-3.314-0.339-4.73-1.018
		s-2.63-1.583-3.642-2.709c-1.014-1.124-1.8-2.412-2.356-3.859c-0.557-1.448-0.835-2.929-0.835-4.446
		c0-1.581,0.296-3.096,0.885-4.545c0.59-1.449,1.404-2.73,2.439-3.845c1.036-1.114,2.268-1.999,3.694-2.656
		c1.426-0.658,2.975-0.986,4.646-0.986c1.717,0,3.281,0.352,4.696,1.053c1.415,0.701,2.624,1.62,3.627,2.757
		c1.004,1.136,1.782,2.43,2.339,3.878c0.557,1.448,0.837,2.92,0.837,4.411c0,1.583-0.29,3.092-0.87,4.529
		c-0.579,1.437-1.382,2.707-2.406,3.809c-1.025,1.102-2.251,1.983-3.677,2.642C342.353,130.07,340.804,130.399,339.134,130.399z
		 M332.249,118.367c0,1.025,0.155,2.016,0.466,2.975c0.311,0.959,0.763,1.805,1.354,2.54c0.59,0.737,1.314,1.327,2.171,1.772
		c0.858,0.447,1.834,0.669,2.925,0.669c1.115,0,2.1-0.227,2.958-0.684c0.858-0.457,1.582-1.064,2.173-1.822
		c0.59-0.757,1.036-1.61,1.337-2.556c0.301-0.947,0.452-1.91,0.452-2.891c0-1.025-0.162-2.016-0.485-2.975
		c-0.323-0.959-0.78-1.805-1.37-2.54c-0.591-0.736-1.315-1.32-2.173-1.755s-1.822-0.652-2.891-0.652
		c-1.115,0-2.106,0.229-2.975,0.684c-0.868,0.457-1.593,1.059-2.171,1.805c-0.579,0.746-1.019,1.593-1.321,2.54
		C332.399,116.423,332.249,117.387,332.249,118.367z"/>
	<path fill="#A3A191" stroke="#A3A191" stroke-miterlimit="10" d="M400.367,130.232v-15.709l-6.117,11.697h-2.506l-6.116-11.697
		v15.709h-4.613v-23.73h4.947l7.02,13.503l7.086-13.503h4.913v23.73H400.367z"/>
	<path fill="#A3A191" stroke="#A3A191" stroke-miterlimit="10" d="M450.803,112.719c-0.156-0.156-0.44-0.368-0.852-0.634
		c-0.411-0.268-0.913-0.529-1.504-0.787c-0.591-0.255-1.232-0.473-1.922-0.652c-0.691-0.179-1.394-0.267-2.107-0.267
		c-1.27,0-2.217,0.234-2.841,0.701s-0.935,1.124-0.935,1.972c0,0.491,0.117,0.898,0.351,1.22c0.235,0.323,0.574,0.608,1.019,0.852
		c0.445,0.246,1.009,0.466,1.688,0.669c0.68,0.2,1.465,0.411,2.356,0.634c1.159,0.311,2.212,0.646,3.158,1.004
		c0.946,0.357,1.75,0.801,2.406,1.337c0.657,0.536,1.165,1.176,1.521,1.922c0.356,0.746,0.535,1.667,0.535,2.758
		c0,1.27-0.24,2.356-0.72,3.258c-0.478,0.904-1.124,1.633-1.939,2.19c-0.814,0.557-1.75,0.963-2.808,1.22
		c-1.059,0.255-2.166,0.384-3.325,0.384c-1.782,0-3.543-0.267-5.282-0.801s-3.298-1.291-4.679-2.272l2.04-3.976
		c0.2,0.2,0.562,0.462,1.085,0.785c0.523,0.323,1.141,0.646,1.856,0.969c0.712,0.323,1.504,0.596,2.374,0.818
		c0.868,0.223,1.76,0.335,2.673,0.335c2.54,0,3.809-0.813,3.809-2.441c0-0.512-0.144-0.947-0.433-1.303
		c-0.29-0.356-0.701-0.669-1.236-0.935c-0.535-0.268-1.181-0.514-1.94-0.737c-0.757-0.222-1.604-0.466-2.54-0.736
		c-1.136-0.311-2.121-0.652-2.958-1.019c-0.835-0.366-1.532-0.801-2.089-1.303c-0.558-0.502-0.975-1.08-1.253-1.738
		c-0.28-0.657-0.418-1.442-0.418-2.356c0-1.203,0.222-2.271,0.669-3.208c0.445-0.935,1.064-1.715,1.855-2.339
		c0.791-0.624,1.71-1.097,2.758-1.42c1.047-0.323,2.171-0.485,3.374-0.485c1.671,0,3.209,0.261,4.613,0.785
		c1.403,0.524,2.63,1.143,3.677,1.855L450.803,112.719z"/>
</g>
</svg>
